<svg width="40" height="40" viewBox="0 0 40 40" fill="none" xmlns="http://www.w3.org/2000/svg">
<path d="M19.9486 0.5H20.0396C30.7807 0.5 39.4882 9.20992 39.4882 19.9545V20.0455C39.4882 30.7901 30.7807 39.5 20.0396 39.5H19.9486C9.20755 39.5 0.5 30.7901 0.5 20.0455V19.9545C0.5 9.20992 9.20755 0.5 19.9486 0.5Z" stroke="white"/>
<path d="M7.57372 19.3182C7.62976 19.2902 7.68582 19.2636 7.74046 19.2383C8.69033 18.7983 9.6528 18.3863 10.6139 17.9743C10.6657 17.9743 10.7526 17.914 10.8016 17.8944C10.8758 17.8622 10.9501 17.8313 11.0244 17.7991C11.1673 17.7374 11.3102 17.6772 11.4517 17.6155C11.7375 17.4936 12.0218 17.3717 12.3076 17.2498L14.0182 16.5168C15.1586 16.0291 16.3005 15.5401 17.4409 15.0524C18.5813 14.5647 19.723 14.0756 20.8634 13.5879C22.0038 13.1002 23.1456 12.6111 24.286 12.1235C25.4264 11.6358 26.5683 11.1467 27.7087 10.659C27.9622 10.5497 28.2368 10.3871 28.5086 10.3395C28.737 10.2988 28.9597 10.2204 29.1895 10.1769C29.6252 10.0942 30.1057 10.0606 30.5232 10.2414C30.6675 10.3045 30.8006 10.3927 30.9113 10.5035C31.4409 11.0276 31.3666 11.888 31.2545 12.6252C30.4742 17.7627 29.6938 22.9016 28.9121 28.0391C28.8056 28.744 28.6599 29.5176 28.1037 29.9632C27.633 30.3402 26.9633 30.3822 26.3819 30.2225C25.8005 30.0613 25.2877 29.7236 24.7848 29.3914C22.6987 28.0097 20.6113 26.6279 18.5252 25.2461C18.0293 24.9182 17.4773 24.4894 17.4829 23.8938C17.4857 23.535 17.7 23.2155 17.9186 22.931C19.7315 20.5655 22.3471 18.9398 24.293 16.6836C24.5676 16.3655 24.7834 15.7909 24.4065 15.6073C24.1824 15.498 23.9246 15.6466 23.72 15.7881C21.1478 17.5749 18.5771 19.3631 16.0049 21.1498C15.1657 21.7328 14.2858 22.3326 13.2743 22.4756C12.3693 22.6045 11.4587 22.3522 10.5831 22.0944C9.84894 21.8786 9.11621 21.6571 8.38629 21.4287C7.99822 21.3082 7.59754 21.1779 7.29773 20.9046C6.99792 20.6313 6.82562 20.1717 7.00635 19.8073C7.11983 19.5789 7.33979 19.4345 7.57095 19.3168L7.57372 19.3182Z" fill="#FEFFFC"/>
</svg>
