<svg width="40" height="41" viewBox="0 0 40 41" fill="none" xmlns="http://www.w3.org/2000/svg">
<path d="M19.9545 0.5H20.0455C30.7898 0.5 39.5 9.21255 39.5 19.9603V20.0515C39.5 30.7992 30.7898 39.5118 20.0455 39.5118H19.9545C9.2102 39.5118 0.5 30.7992 0.5 20.0515V19.9603C0.5 9.21255 9.2102 0.5 19.9545 0.5Z" stroke="white"/>
<path d="M31.8607 18.944C31.3226 12.8714 26.2089 8.09402 20.0007 8.09402C13.4338 8.09402 8.09027 13.4391 8.09027 20.0052C8.09027 22.4163 8.81199 24.6634 10.0494 26.5404L8.56535 29.8305C8.17436 30.6954 8.87084 31.657 9.81398 31.5575L15.3397 30.9687C16.7719 31.5799 18.3471 31.9177 20.0007 31.9177C20.4211 31.9177 20.8388 31.8953 21.248 31.8533C21.6263 31.8126 21.9977 31.7551 22.3649 31.6822C27.7813 30.586 31.8761 25.8003 31.9084 20.0739V20.0052C31.9084 19.6491 31.893 19.2917 31.8607 18.944ZM26.6153 17.3235L24.1152 21.1813L22.7923 23.2223C22.5106 23.6569 21.9178 23.7606 21.5058 23.4466L19.3126 21.7841L17.9603 20.7594C17.851 20.6766 17.6982 20.6795 17.5917 20.7664L14.2732 23.4747C13.7393 23.9106 13.0092 23.2546 13.3833 22.677L15.7251 19.066L17.048 17.0235C17.3297 16.589 17.9211 16.4852 18.3345 16.7978L20.4632 18.4127L21.8155 19.4361C21.9248 19.5202 22.0776 19.5174 22.1841 19.429L25.724 16.5259C26.2579 16.0885 26.9909 16.7446 26.6153 17.3235Z" fill="white"/>
</svg>
