<svg width="180" height="51" viewBox="0 0 180 51" fill="none" xmlns="http://www.w3.org/2000/svg">
<path fill-rule="evenodd" clip-rule="evenodd" d="M133.843 18.5951V21.1698H137.223C137.931 21.1698 138.511 20.5905 138.511 19.8822C138.511 19.1745 137.931 18.5951 137.223 18.5951H133.843ZM70.4292 11.4397V19.1019H77.212V16.1305H84.6354L70.4292 28.5437V33.2346H98.3699V25.309H91.5875V28.5437H83.9774L98.3699 16.1305V11.4396H70.4292V11.4397ZM124.774 25.885H126.522V18.5951H124.774V15.129C130.517 15.129 136.26 15.129 142.002 15.129C144.231 15.129 146.055 16.9532 146.055 19.1821C146.055 20.7703 145.118 22.2116 143.676 22.8706L146.102 25.885H147.439V29.6763H140.393L136.114 23.6357H133.843V25.885H135.591V29.6763H124.774V25.885H124.774ZM180 25.7945C179.556 28.0625 176.29 33.4854 165.338 33.4854C158.244 33.4854 150.179 30.606 149.971 22.3315C149.93 20.7333 150.235 19.2021 150.818 17.9696C152.165 15.1224 154.969 12.9976 158.439 12.0102C161.779 11.0605 168.956 10.8184 172.165 13.247V11.4397H178.947V19.1019H172.165C171.113 16.7911 168.376 16.0118 166.861 16.0102C164.183 16.0078 161.65 17.6601 161.65 20.7435V23.5228C161.65 26.4827 163.822 28.009 166.128 28.2767C168.204 28.5177 170.303 27.51 170.404 25.7946H167.312V21.1043H180V25.7946L180 25.7945ZM111.675 18.3078C112.832 18.3078 113.779 19.2539 113.779 20.4105V24.2313C113.779 25.3879 112.832 26.334 111.675 26.334C110.519 26.334 109.573 25.388 109.573 24.2313V20.4105C109.573 19.254 110.519 18.3078 111.675 18.3078ZM111.675 14.7745C117.717 14.7745 122.614 18.1532 122.614 22.3209C122.614 26.4885 117.717 29.867 111.675 29.867C105.635 29.867 100.738 26.4885 100.738 22.3209C100.738 18.1532 105.635 14.7745 111.675 14.7745ZM51.7643 6.25621V34.1762L51.5099 34.6819C50.5333 36.6196 49.0612 38.5442 47.2691 40.3453C45.4164 42.2078 43.2221 43.943 40.8859 45.4231C38.5483 46.9041 36.0406 48.1501 33.5607 49.0329C31.1766 49.8822 28.8019 50.3949 26.6072 50.4604C24.268 50.5301 21.7495 50.1232 19.2221 49.3485C16.6098 48.547 13.9731 47.3474 11.5101 45.8715C9.03438 44.3888 6.72002 42.6191 4.76801 40.6873C2.8724 38.8118 1.30889 36.7739 0.25462 34.6817L0 34.1761V4.58895L1.6005 4.05537C3.67036 3.36513 5.69612 2.77214 7.67861 2.2758C9.69895 1.77005 11.7248 1.34769 13.7548 1.00872C15.7977 0.667941 17.8188 0.414406 19.8189 0.24727C21.7949 0.0825437 23.8161 0 25.8823 0C27.948 0 29.9696 0.0824232 31.9459 0.24727C33.9457 0.414285 35.9669 0.667941 38.0095 1.00872C40.0398 1.34769 42.0655 1.77005 44.0859 2.2758C46.0682 2.77214 48.0943 3.36525 50.164 4.05537L51.7643 4.58895V6.25609V6.25621ZM47.9546 33.2808V7.32675C46.2852 6.79437 44.6204 6.32357 42.9601 5.9129C41.1022 5.45379 39.2432 5.06927 37.384 4.75898C35.4707 4.43965 33.5515 4.19973 31.6261 4.03862C29.6845 3.87606 27.7698 3.7952 25.8823 3.7952C23.9948 3.7952 22.08 3.87606 20.1385 4.03862C18.2131 4.19973 16.2939 4.43965 14.3806 4.75898C12.521 5.06939 10.6622 5.45391 8.80446 5.9129C7.14431 6.32345 5.47934 6.79425 3.8099 7.32675V33.2816C4.69523 34.9349 5.98472 36.5669 7.54486 38.0945C9.25393 39.7672 11.2825 41.3087 13.4593 42.613C15.6534 43.9271 17.9872 44.9938 20.2859 45.7042C22.4466 46.3719 24.5689 46.7232 26.5029 46.6658C28.2994 46.6124 30.2963 46.1701 32.3418 45.4362C34.5154 44.6559 36.7436 43.542 38.8471 42.209C40.9222 40.8942 42.8543 39.3793 44.4701 37.7741C45.9347 36.3194 47.1397 34.7936 47.9546 33.2808ZM48.8014 33.4862V6.71195C45.0365 5.48018 41.2773 4.55195 37.5232 3.92547C33.6271 3.27524 29.7472 2.95169 25.8825 2.95169C22.0175 2.95169 18.1373 3.27524 14.2416 3.92547C10.4875 4.55195 6.72798 5.48018 2.96338 6.71195V33.4862C4.86478 37.1644 8.65817 40.7206 13.0259 43.337C17.4146 45.9658 22.3597 47.6329 26.5259 47.5089C30.404 47.3936 35.1133 45.5762 39.3003 42.9232C43.4411 40.2993 47.0453 36.8743 48.8015 33.4862H48.8014ZM50.0715 6.25621V33.7834L50.0017 33.9211C48.1661 37.5634 44.3519 41.2244 39.9795 43.9947C35.6191 46.7576 30.676 48.6515 26.5606 48.7737C22.1479 48.9053 16.9553 47.1663 12.3764 44.4236C7.76284 41.66 3.75002 37.8638 1.76294 33.9212L1.69293 33.7835V5.80156L2.12975 5.65599C6.11318 4.32782 10.0808 3.33549 14.0327 2.67574C17.988 2.01575 21.9378 1.68702 25.8821 1.68702C29.8262 1.68702 33.7762 2.01575 37.7314 2.67574C41.6834 3.33549 45.651 4.32794 49.6343 5.65599L50.0711 5.80156V6.25633L50.0715 6.25621ZM37.5458 14.5954L35.4657 16.6602C34.0562 16.0413 32.0953 15.5545 30.4038 15.4021C27.3976 15.1314 24.2036 15.4531 22.2596 16.0061C22.1211 16.0458 21.9833 16.0867 21.8467 16.1298H16.3858V19.1013H9.60194V11.4391H37.5458V14.5955V14.5954ZM30.7427 21.3976L26.3743 25.7652L26.3715 25.4159C26.3728 24.1105 26.9033 23.1126 27.7141 22.4438C28.5199 21.7779 29.5456 21.4138 30.7427 21.3977V21.3976ZM26.386 28.5446H30.6184V31.1826H33.4414C33.2695 31.4245 33.0244 31.6332 32.7307 31.8007C32.1178 32.1505 31.3115 32.324 30.4841 32.2752C30.4048 32.2705 30.3176 32.2628 30.2238 32.2518C29.1399 32.1258 28.0969 31.69 27.3737 30.9222C26.8244 30.3392 26.4542 29.5514 26.3859 28.5447L26.386 28.5446ZM15.2907 33.2356H9.60182V28.5446L13.3665 25.2555C13.293 25.8279 13.2625 26.4218 13.2776 27.0264C13.3414 29.5416 14.0847 31.5907 15.2907 33.2356ZM38.7275 35.5181C41.8277 33.8917 43.0354 31.6553 43.3073 30.4043V26.4916H32.0366V29.7641H35.1707L35.1264 30.5145C35.1227 30.5758 35.1178 30.6295 35.1129 30.6748C34.994 31.6992 34.3477 32.5063 33.4284 33.0307C32.5848 33.5129 31.498 33.7528 30.4005 33.688C30.2809 33.6813 30.1677 33.6714 30.0624 33.6592C28.6687 33.4974 27.31 32.9189 26.343 31.8915C25.496 30.9931 24.9553 29.7678 24.9553 28.2012V25.4159H24.9582C24.9599 23.6439 25.6941 22.2776 26.8163 21.3521C27.9134 20.4473 29.3756 19.9788 30.8695 19.9788H30.8763V19.9815C31.8446 19.9826 33.2564 20.266 34.4976 20.9892C35.3282 21.4739 36.0904 22.1523 36.613 23.0704H42.2542V16.8264H36.8891V19.3493L35.7532 18.4896C34.464 17.5138 32.4305 17.0034 30.2815 16.8099C27.4519 16.5549 24.4601 16.8537 22.6472 17.3691C20.9798 17.8435 19.4795 18.5894 18.2436 19.556C17.0444 20.4937 16.0904 21.6406 15.4712 22.9497C15.2037 23.5154 14.9996 24.1533 14.8669 24.8358C14.7331 25.5248 14.6718 26.2529 14.6905 26.9934C14.7773 30.4302 16.3179 32.8669 18.5833 34.5112C21.4756 36.6101 25.5517 37.4552 29.3531 37.4552C33.5677 37.4552 36.5901 36.6388 38.7272 35.518L38.7275 35.5181Z" fill="url(#paint0_linear_162_3)"/>
<defs>
<linearGradient id="paint0_linear_162_3" x1="168.373" y1="30.9252" x2="11.625" y2="19.5592" gradientUnits="userSpaceOnUse">
<stop stop-color="#FAB361"/>
<stop offset="0.301961" stop-color="#FFDCAD"/>
<stop offset="0.690196" stop-color="#F2A348"/>
<stop offset="1" stop-color="#A3550C"/>
</linearGradient>
</defs>
</svg>
