<svg width="334" height="254" viewBox="0 0 334 254" fill="none" xmlns="http://www.w3.org/2000/svg">
<path fill-rule="evenodd" clip-rule="evenodd" d="M193.303 207.79V215.638H203.605C205.764 215.638 207.53 213.873 207.53 211.713C207.53 209.556 205.764 207.79 203.605 207.79H193.303V207.79ZM0 185.979V209.335H20.6757V200.277H43.3045L0 238.117V252.415H85.1702V228.256H64.4957V238.117H41.2983L85.1705 200.277V185.979H0.000314302H0ZM245.385 18.9469V103.504L244.615 105.035C241.657 110.904 237.198 116.732 231.771 122.187C226.16 127.827 219.515 133.083 212.439 137.565C205.36 142.051 197.765 145.824 190.255 148.498C183.034 151.069 175.842 152.623 169.195 152.821C162.111 153.032 154.484 151.8 146.829 149.454C138.919 147.026 130.933 143.393 123.473 138.924C115.975 134.432 108.967 129.073 103.055 123.223C97.3142 117.543 92.5786 111.371 89.3856 105.035L88.6143 103.503V13.8973L93.4615 12.2815C99.7299 10.1911 105.865 8.39517 111.87 6.89186C117.988 5.35995 124.124 4.08106 130.272 3.05455C136.458 2.02238 142.58 1.25454 148.637 0.748515C154.621 0.249403 160.743 -0.000152588 167 -0.000152588C173.256 -0.000152588 179.379 0.249403 185.364 0.748515C191.42 1.25454 197.542 2.0227 203.728 3.05455C209.877 4.08106 216.011 5.35995 222.13 6.89186C228.133 8.39548 234.27 10.1911 240.538 12.2815L245.385 13.8973V18.9463L245.385 18.9469ZM233.847 100.791V22.1889C228.791 20.5769 223.749 19.1506 218.722 17.9072C213.095 16.5167 207.465 15.3522 201.834 14.4125C196.04 13.4451 190.228 12.7187 184.396 12.2309C178.516 11.7387 172.717 11.4936 167.001 11.4936C161.285 11.4936 155.486 11.7387 149.606 12.2309C143.775 12.7187 137.962 13.4454 132.168 14.4125C126.536 15.3522 120.907 16.5167 115.28 17.9072C110.252 19.1506 105.21 20.5766 100.154 22.1889V100.794C102.836 105.801 106.741 110.744 111.465 115.37C116.641 120.436 122.785 125.105 129.378 129.054C136.023 133.034 143.091 136.265 150.052 138.416C156.596 140.438 163.023 141.502 168.881 141.328C174.321 141.166 180.369 139.827 186.564 137.604C193.147 135.241 199.895 131.868 206.266 127.831C212.55 123.849 218.402 119.261 223.295 114.399C227.73 109.994 231.379 105.373 233.848 100.791L233.847 100.791ZM236.412 101.414V20.327C225.009 16.5966 213.625 13.7858 202.255 11.8883C190.456 9.91922 178.706 8.93923 167.001 8.93923C155.296 8.93923 143.545 9.91922 131.746 11.8883C120.376 13.7858 108.99 16.5966 97.5892 20.327V101.414C103.348 112.553 114.836 123.323 128.064 131.247C141.355 139.208 156.332 144.258 168.95 143.882C180.694 143.533 194.957 138.029 207.637 129.994C220.178 122.048 231.093 111.675 236.412 101.414H236.412ZM240.258 18.9469V102.314L240.047 102.731C234.489 113.762 222.937 124.85 209.694 133.239C196.489 141.607 181.519 147.342 169.055 147.713C155.691 148.111 139.965 142.845 126.097 134.538C112.125 126.168 99.9719 114.671 93.954 102.731L93.7422 102.314V17.5696L95.0654 17.1284C107.129 13.1062 119.145 10.1006 131.114 8.10256C143.093 6.10391 155.055 5.1082 167.001 5.1082C178.945 5.1082 190.908 6.10391 202.886 8.10256C214.855 10.1006 226.871 13.1062 238.935 17.1284L240.258 17.5696V18.9469H240.258ZM202.324 44.2023L196.024 50.4557C191.756 48.5815 185.817 47.1068 180.694 46.6454C171.59 45.8257 161.916 46.8001 156.029 48.4743C155.61 48.5944 155.192 48.7189 154.779 48.849H138.24V57.8484H117.694V34.6428H202.324V44.2023H202.324ZM181.721 64.8033L168.491 78.0304L168.482 76.9724C168.486 73.0188 170.093 69.9968 172.548 67.9711C174.989 65.9549 178.095 64.8517 181.721 64.8033ZM168.526 86.4477H181.344V94.4369H189.894C189.373 95.1693 188.631 95.8016 187.741 96.3086C185.885 97.3684 183.443 97.8936 180.937 97.7462C180.697 97.7318 180.433 97.7085 180.149 97.6752C176.866 97.2936 173.708 95.9739 171.517 93.648C169.854 91.8826 168.733 89.4964 168.526 86.4474V86.4477ZM134.924 100.654H117.695V86.4477L129.097 76.4865C128.874 78.2199 128.782 80.019 128.827 81.8498C129.02 89.4672 131.271 95.6731 134.924 100.654ZM205.903 107.567C215.292 102.642 218.95 95.8689 219.773 92.08V80.2302H185.639V90.1411H195.131L194.997 92.4138C194.986 92.5992 194.971 92.762 194.956 92.8991C194.596 96.0015 192.639 98.4459 189.855 100.034C187.3 101.495 184.008 102.221 180.685 102.025C180.323 102.005 179.98 101.975 179.661 101.937C175.44 101.448 171.326 99.6955 168.397 96.5842C165.832 93.8633 164.194 90.1524 164.194 85.4077V76.9727H164.203C164.208 71.6063 166.432 67.4686 169.83 64.6653C173.153 61.9255 177.581 60.5061 182.106 60.5061H182.126V60.5143C185.059 60.5175 189.335 61.3761 193.093 63.5665C195.608 65.0343 197.916 67.0889 199.5 69.8695H216.584V50.9592H200.336V58.5999L196.895 55.9959C192.991 53.0411 186.832 51.4948 180.324 50.9092C171.754 50.1367 162.693 51.0419 157.203 52.603C152.154 54.04 147.61 56.2989 143.867 59.226C140.235 62.0657 137.346 65.5391 135.471 69.504C134.661 71.2172 134.042 73.1489 133.641 75.2161C133.236 77.3028 133.05 79.5079 133.106 81.7504C133.369 92.1592 138.035 99.5387 144.896 104.519C153.655 110.875 166 113.435 177.512 113.435C190.276 113.435 199.43 110.963 205.902 107.568L205.903 107.567ZM165.658 230.012H170.986V207.79H165.658V197.224C183.164 197.224 200.669 197.224 218.173 197.224C224.967 197.224 230.527 202.785 230.527 209.58C230.527 214.42 227.672 218.814 223.276 220.823L230.672 230.011H234.747V241.568H213.27L200.226 223.155H193.303V230.011H198.632V241.568H165.658V230.011V230.012ZM334 229.736C332.645 236.649 322.691 253.18 289.308 253.18C267.684 253.18 243.099 244.403 242.463 219.18C242.34 214.308 243.269 209.641 245.045 205.884C249.151 197.205 257.698 190.728 268.277 187.718C278.457 184.823 300.335 184.085 310.116 191.488V185.979H330.791V209.335H310.116C306.91 202.291 298.568 199.916 293.95 199.911C285.785 199.903 278.065 204.94 278.065 214.339V222.81C278.065 231.833 284.685 236.485 291.715 237.301C298.044 238.036 304.441 234.964 304.75 229.735H295.325V215.438H334V229.735L334 229.736ZM125.73 206.914C129.256 206.914 132.141 209.798 132.141 213.324V224.971C132.141 228.496 129.256 231.38 125.73 231.38C122.205 231.38 119.32 228.496 119.32 224.971V213.324C119.32 209.798 122.205 206.914 125.73 206.914ZM125.73 196.144C144.145 196.144 159.072 206.443 159.072 219.147C159.072 231.851 144.145 242.15 125.73 242.15C107.316 242.15 92.3891 231.851 92.3891 219.147C92.3891 206.443 107.316 196.144 125.73 196.144Z" fill="url(#paint0_linear_124_17)"/>
<defs>
<linearGradient id="paint0_linear_124_17" x1="274.781" y1="240.572" x2="59.2318" y2="198.265" gradientUnits="userSpaceOnUse">
<stop stop-color="#FAB361"/>
<stop offset="0.301961" stop-color="#FFDCAD"/>
<stop offset="0.690196" stop-color="#F2A348"/>
<stop offset="1" stop-color="#A3550C"/>
</linearGradient>
</defs>
</svg>
