<svg width="113" height="110" viewBox="0 0 113 110" fill="none" xmlns="http://www.w3.org/2000/svg">
<path fill-rule="evenodd" clip-rule="evenodd" d="M112.895 13.6354V74.4901L112.34 75.592C110.21 79.8156 106.999 84.0104 103.091 87.9362C99.0505 91.9957 94.2647 95.778 89.1695 99.004C84.0716 102.232 78.6024 104.948 73.1939 106.872C67.994 108.723 62.8151 109.841 58.0285 109.983C52.9268 110.135 47.4341 109.249 41.922 107.56C36.2251 105.813 30.4747 103.198 25.1027 99.9816C19.7034 96.7496 14.6562 92.8923 10.3986 88.6819C6.26481 84.594 2.8547 80.1522 0.555259 75.592L0 74.4901V10.0016L3.49061 8.83865C8.00481 7.33398 12.4229 6.04185 16.747 4.95985C21.1533 3.85741 25.5715 2.93678 29.9986 2.19828C34.4539 1.45544 38.8622 0.90261 43.2242 0.53867C47.5336 0.179396 51.9419 0 56.4482 0C60.9534 0 65.3624 0.179557 69.6723 0.53867C74.0339 0.90277 78.4422 1.45544 82.897 2.19828C87.325 2.93678 91.7428 3.85741 96.1491 4.95985C100.472 6.04185 104.891 7.33414 109.405 8.83865L112.896 10.0016V13.6355L112.895 13.6354ZM104.586 72.5383V15.9686C100.945 14.8083 97.3141 13.7819 93.6934 12.8872C89.6415 11.8866 85.5873 11.0484 81.5321 10.372C77.3592 9.67594 73.1737 9.15288 68.9743 8.80181C64.7399 8.44752 60.5639 8.27118 56.4477 8.27118C52.3312 8.27118 48.1552 8.44752 43.9208 8.80181C39.7218 9.15288 35.5359 9.67578 31.363 10.372C27.3075 11.0482 23.2539 11.8866 19.2017 12.8872C15.5811 13.7819 11.9502 14.8083 8.30908 15.9686V72.54C10.24 76.1436 13.0524 79.7007 16.4546 83.0301C20.1822 86.6761 24.6061 90.0362 29.3537 92.8788C34.139 95.7431 39.2287 98.0681 44.2422 99.6162C48.9545 101.072 53.583 101.837 57.801 101.712C61.7189 101.596 66.0742 100.632 70.5354 99.0323C75.2758 97.3316 80.1352 94.9037 84.7231 91.9983C89.2486 89.1326 93.4625 85.8304 96.9861 82.3318C100.18 79.1613 102.808 75.8356 104.586 72.5384L104.586 72.5383ZM106.433 72.9862V14.6289C98.2216 11.9442 90.0229 9.92114 81.8354 8.55564C73.3386 7.13834 64.8767 6.43314 56.4477 6.43314C48.0185 6.43314 39.556 7.13834 31.0597 8.55564C22.8722 9.9213 14.6727 11.9442 6.46251 14.6289V72.9862C10.6095 81.0032 18.8827 88.7542 28.4082 94.4572C37.9794 100.187 48.7647 103.82 57.8509 103.55C66.3087 103.299 76.5792 99.3376 85.7111 93.5551C94.7421 87.8358 102.602 80.3707 106.433 72.986V72.9862ZM109.203 13.6355V73.6339L109.051 73.9343C105.048 81.8733 96.7287 89.8528 87.1927 95.8908C77.6829 101.913 66.9026 106.041 57.9269 106.307C48.303 106.594 36.9782 102.804 26.9918 96.8252C16.9303 90.8017 8.17835 82.5276 3.84479 73.9343L3.69233 73.6339V12.6444L4.64508 12.3268C13.3323 9.43219 21.9858 7.26914 30.6048 5.83092C39.231 4.39238 47.8455 3.67592 56.4477 3.67592C65.0496 3.67592 73.6641 4.39238 82.2904 5.83092C90.9093 7.26914 99.5628 9.43219 108.25 12.3268L109.203 12.6444V13.6355H109.203ZM81.8851 31.8116L77.3484 36.3121C74.2746 34.9632 69.9977 33.9019 66.3088 33.57C59.7524 32.9802 52.7864 33.6812 48.5466 34.8864C48.2447 34.9728 47.9442 35.0623 47.6463 35.1559H35.7362V41.6328H20.9411V24.932H81.8851V31.8119V31.8116ZM67.0479 46.6379L57.521 56.1573L57.5146 55.3959C57.5173 52.5507 58.6747 50.3757 60.4427 48.9177C62.2002 47.4666 64.4371 46.6728 67.0479 46.6379ZM57.5463 62.2151H66.7767V67.965H72.9339C72.5586 68.4921 72.0241 68.9471 71.3835 69.3122C70.0468 70.0748 68.2885 70.4531 66.4839 70.3467C66.311 70.3363 66.1209 70.3195 65.9164 70.2956C63.5523 70.0209 61.2778 69.071 59.7004 67.3974C58.5028 66.1267 57.6952 64.4096 57.5463 62.2152V62.2151ZM33.3484 72.4396H20.9413V62.2151L29.152 55.0463C28.9918 56.2939 28.9251 57.5886 28.9578 58.9061C29.0968 64.3882 30.7179 68.8548 33.3484 72.4396ZM84.4624 77.4146C91.2239 73.8698 93.8577 68.9954 94.4508 66.2684V57.7403H69.8702V64.8728H76.7054L76.609 66.5085C76.6009 66.642 76.5905 66.7592 76.5795 66.8578C76.3201 69.0907 74.9108 70.8499 72.906 71.9928C71.066 73.0438 68.6956 73.5667 66.3025 73.4256C66.0413 73.4111 65.7945 73.3894 65.5653 73.3627C62.5253 73.0102 59.5624 71.7493 57.4533 69.5101C55.606 67.5519 54.4269 64.8811 54.4269 61.4664V55.3958H54.4332C54.4369 51.5337 56.0383 48.5557 58.4857 46.5381C60.8784 44.5664 64.0671 43.545 67.3256 43.545H67.3401V43.5508C69.4521 43.5531 72.5312 44.1711 75.2381 45.7475C77.0494 46.8038 78.7117 48.2825 79.8518 50.2837H92.1548V36.6743H80.4538V42.1731L77.9764 40.299C75.1647 38.1725 70.7299 37.0598 66.0428 36.6381C59.8717 36.0822 53.3465 36.7336 49.3929 37.8571C45.7563 38.8914 42.4843 40.5172 39.789 42.6238C37.1735 44.6674 35.0929 47.1672 33.7428 50.0207C33.1594 51.2537 32.7139 52.6439 32.4246 54.1316C32.133 55.6334 31.9991 57.2203 32.0398 58.8344C32.2292 66.3254 35.589 71.6365 40.5299 75.2205C46.8377 79.7952 55.7274 81.6371 64.0182 81.6371C73.2098 81.6371 79.8014 79.8581 84.4626 77.4149L84.4624 77.4146Z" fill="url(#paint0_linear_124_14)"/>
<defs>
<linearGradient id="paint0_linear_124_14" x1="92.8783" y1="104.523" x2="20.0259" y2="86.1203" gradientUnits="userSpaceOnUse">
<stop stop-color="#FAB361"/>
<stop offset="0.301961" stop-color="#FFDCAD"/>
<stop offset="0.690196" stop-color="#F2A348"/>
<stop offset="1" stop-color="#A3550C"/>
</linearGradient>
</defs>
</svg>
