<?xml version="1.0" encoding="UTF-8"?>
<!DOCTYPE svg PUBLIC "-//W3C//DTD SVG 1.1//EN" "http://www.w3.org/Graphics/SVG/1.1/DTD/svg11.dtd">
<!-- Creator: CorelDRAW 2020 (64-Bit) -->
<svg xmlns="http://www.w3.org/2000/svg" xml:space="preserve" width="70.1356mm" height="68.379mm" version="1.1" style="shape-rendering:geometricPrecision; text-rendering:geometricPrecision; image-rendering:optimizeQuality; fill-rule:evenodd; clip-rule:evenodd"
viewBox="0 0 7012.5 6836.87"
 xmlns:xlink="http://www.w3.org/1999/xlink"
 xmlns:xodm="http://www.corel.com/coreldraw/odm/2003">
 <defs>
  <style type="text/css">
   <![CDATA[
    .fil0 {fill:url(#id0)}
   ]]>
  </style>
  <linearGradient id="id0" gradientUnits="userSpaceOnUse" x1="5769.16" y1="6496.44" x2="1243.59" y2="5353.98">
   <stop offset="0" style="stop-opacity:1; stop-color:#FAB361"/>
   <stop offset="0.301961" style="stop-opacity:1; stop-color:#FFDCAD"/>
   <stop offset="0.690196" style="stop-opacity:1; stop-color:#F2A348"/>
   <stop offset="1" style="stop-opacity:1; stop-color:#A3550C"/>
  </linearGradient>
 </defs>
 <g id="Слой_x0020_1">
  <metadata id="CorelCorpID_0Corel-Layer"/>
  <path class="fil0" d="M7012.5 847.5l0 3782.31 -34.47 68.49c-132.31,262.51 -331.73,523.23 -574.5,767.23 -250.98,252.31 -548.25,487.39 -864.74,687.9 -316.66,200.63 -656.38,369.41 -992.33,489.02 -322.99,115.04 -644.68,184.51 -942,193.37 -316.89,9.45 -658.07,-45.65 -1000.46,-150.61 -353.86,-108.58 -711.05,-271.09 -1044.73,-471.02 -335.38,-200.88 -648.89,-440.62 -913.35,-702.31 -256.77,-254.08 -468.59,-530.15 -611.42,-813.58l-34.49 -68.49 0 -4008.16 216.82 -72.28c280.4,-93.52 554.83,-173.83 823.42,-241.08 273.7,-68.52 548.14,-125.74 823.13,-171.64 276.74,-46.17 550.56,-80.53 821.51,-103.15 267.68,-22.33 541.5,-33.48 821.41,-33.48 279.84,0 553.71,11.16 821.42,33.48 270.92,22.63 544.74,56.98 821.45,103.15 275.05,45.9 549.46,103.12 823.16,171.64 268.53,67.25 543.02,147.57 823.42,241.08l216.8 72.28 0 225.86zm-516.11 3661l0 -3515.98c-226.17,-72.12 -451.7,-135.91 -676.6,-191.52 -251.68,-62.19 -503.51,-114.29 -755.4,-156.33 -259.2,-43.26 -519.18,-75.77 -780.03,-97.59 -263.02,-22.02 -522.41,-32.98 -778.09,-32.98 -255.7,0 -515.09,10.96 -778.11,32.98 -260.82,21.82 -520.83,54.32 -780.03,97.59 -251.91,42.03 -503.7,94.14 -755.4,156.33 -224.9,55.61 -450.43,119.4 -676.6,191.52l0 3516.09c119.94,223.97 294.63,445.06 505.96,651.99 231.54,226.61 506.33,435.45 801.23,612.13 297.24,178.02 613.39,322.53 924.8,418.75 292.71,90.45 580.21,138.05 842.21,130.26 243.36,-7.23 513.89,-67.14 791,-166.55 294.45,-105.71 596.29,-256.61 881.27,-437.19 281.1,-178.11 542.85,-383.35 761.72,-600.8 198.41,-197.06 361.65,-403.76 472.06,-608.69zm114.7 27.84l0 -3627.09c-510.03,-166.86 -1019.29,-292.6 -1527.86,-377.47 -527.78,-88.09 -1053.39,-131.92 -1576.96,-131.92 -523.58,0 -1049.23,43.83 -1576.98,131.92 -508.57,84.88 -1017.88,210.61 -1527.86,377.47l0 3627.09c257.59,498.28 771.48,980.03 1363.16,1334.49 594.52,356.11 1264.45,581.95 1828.84,565.16 525.36,-15.63 1163.31,-261.83 1730.54,-621.23 560.96,-355.47 1049.21,-819.45 1287.12,-1278.43zm172.07 -3688.83l0 3729.09 -9.45 18.67c-248.65,493.43 -765.38,989.38 -1357.71,1364.66 -590.7,374.29 -1260.32,630.84 -1817.85,647.4 -597.79,17.83 -1301.23,-217.75 -1921.54,-589.32 -624.97,-374.38 -1168.6,-888.64 -1437.78,-1422.74l-9.47 -18.67 0 -3790.69 59.18 -19.74c539.61,-179.91 1077.12,-314.35 1612.49,-403.74 535.82,-89.41 1070.91,-133.94 1605.24,-133.94 534.31,0 1069.4,44.53 1605.22,133.94 535.37,89.39 1072.88,223.83 1612.49,403.74l59.19 19.74 0 61.6zm-1696.84 1129.7l-281.8 279.72c-190.93,-83.84 -456.59,-149.8 -685.73,-170.43 -407.25,-36.66 -839.94,6.91 -1103.3,81.82 -18.75,5.37 -37.42,10.93 -55.92,16.75l-739.8 0 0 402.56 -919 0 0 -1038.01 3785.55 0 0 427.61zm-921.62 921.5l-591.76 591.66 -0.4 -47.32c0.17,-176.84 72.06,-312.02 181.88,-402.64 109.17,-90.19 248.11,-139.53 410.28,-141.7zm-590.19 968.17l573.35 0 0 357.38 382.45 0c-23.31,32.76 -56.51,61.04 -96.3,83.73 -83.03,47.4 -192.25,70.91 -304.34,64.3 -10.74,-0.65 -22.55,-1.69 -35.25,-3.18 -146.85,-17.07 -288.13,-76.11 -386.11,-180.13 -74.39,-78.98 -124.55,-185.7 -133.8,-322.09zm-1503.06 635.49l-770.67 0 0 -635.49 510.01 -445.56c-9.95,77.54 -14.09,158.01 -12.06,239.9 8.63,340.73 109.33,618.34 272.72,841.15zm3174.96 309.21c419.99,-220.32 583.59,-523.28 620.43,-692.77l0 -530.05 -1526.83 0 0 443.31 424.57 0 -5.99 101.66c-0.5,8.3 -1.15,15.58 -1.83,21.71 -16.11,138.78 -103.65,248.12 -228.18,319.16 -114.29,65.32 -261.53,97.82 -410.18,89.05 -16.22,-0.9 -31.55,-2.25 -45.79,-3.91 -188.83,-21.91 -372.87,-100.28 -503.88,-239.45 -114.74,-121.71 -187.98,-287.71 -187.98,-499.94l0 -377.31 0.39 0c0.23,-240.04 99.7,-425.13 251.72,-550.53 148.62,-122.55 346.69,-186.03 549.09,-186.03l0.9 0 0 0.36c131.19,0.14 322.45,38.55 490.59,136.53 112.51,65.65 215.76,157.56 286.58,281.94l764.2 0 0 -845.87 -726.81 0 0 341.77 -153.88 -116.48c-174.65,-132.17 -450.12,-201.33 -741.26,-227.54 -383.32,-34.55 -788.63,5.94 -1034.21,75.77 -225.89,64.28 -429.13,165.33 -596.55,296.26 -162.46,127.02 -291.7,282.39 -375.56,459.74 -36.24,76.64 -63.91,163.04 -81.88,255.51 -18.11,93.34 -26.43,191.97 -23.9,292.29 11.76,465.59 220.46,795.69 527.36,1018.45 391.81,284.33 944,398.81 1458.98,398.81 570.94,0 980.38,-110.57 1269.91,-262.42z"/>
 </g>
</svg>
